<svg t="1619081930850" class="icon" viewBox="0 0 1228 1024" version="1.1" xmlns="http://www.w3.org/2000/svg" p-id="881" width="128" height="128"><path d="M57.7536 106.154667v799.9488c0 43.6224 29.4912 72.4992 74.3424 72.4992h964.608c44.2368 0 74.3424-28.8768 74.3424-72.4992V106.154667c0-43.6224-29.4912-72.4992-74.3424-72.4992H132.096C87.8592 33.655467 57.7536 62.532267 57.7536 106.154667z m74.3424 0h964.608V324.266667H132.096V106.154667z m964.608 799.9488H132.096v-218.112h964.608v218.112zM132.096 615.492267V396.765867h964.608v218.112l-964.608 0.6144z m779.0592-436.8384h74.3424c22.1184 0 36.864 14.7456 36.864 36.2496 0 22.1184-14.7456 36.2496-36.864 36.2496h-74.3424c-22.1184 0-36.864-14.7456-36.864-36.2496 0-21.504 14.7456-36.2496 36.864-36.2496z m111.2064 327.4752c0 22.1184-14.7456 36.2496-36.864 36.2496h-74.3424c-22.1184 0-36.864-14.7456-36.864-36.2496 0-21.504 14.7456-36.2496 36.864-36.2496h74.3424c22.1184 0 36.864 14.1312 36.864 36.2496z m-148.0704 290.6112c0-22.1184 14.7456-36.2496 36.864-36.2496h74.3424c22.1184 0 36.864 14.7456 36.864 36.2496 0 22.1184-14.7456 36.2496-36.864 36.2496h-74.3424c-22.1184 0.6144-36.864-14.1312-36.864-36.2496z" fill="#ffffff" p-id="882"></path></svg>